<?xml version="1.0" encoding="utf-8"?>
<!-- Generator: Adobe Illustrator 22.0.0, SVG Export Plug-In . SVG Version: 6.00 Build 0)  -->
<svg version="1.1" id="Layer_1" xmlns="http://www.w3.org/2000/svg" xmlns:xlink="http://www.w3.org/1999/xlink" x="0px" y="0px"
	 viewBox="0 0 595.3 841.9" style="enable-background:new 0 0 595.3 841.9;" xml:space="preserve">
<style type="text/css">
	.st0{fill:#FFFFFF;}
	.st1{fill:#CF523B;}
</style>
<title>Artboard 1</title>
<path class="st0" d="M155.5,580.4v-317h285v317H155.5z M329.2,380.9l0.6-0.2c0.1,0.1,0.3,0.2,0.4,0.3c0.1,0.2,0.2,0.5,0.2,0.7
	c2.3,5.9,3.5,12.3,11.6,13.7c5.5,1,9.8,4.9,13.2,9.3c1.6,2,3.4,0.8,5,0.4c0.6-0.1,1.2-1.8,1.3-2.7c0.1-4.1-1.6-8.1-4.5-11.1
	c-4.2-4.5-8.7-8.7-13.2-13s-8.2-9.3-9.9-15.6c-1.6-6.3-1.8-12.9-0.8-19.3c1.8-11.8,0.4-23.3-2.5-34.9c-2.5-9.7-4.3-19.6-6.3-29.5
	c-0.3-1.4-0.9-1.8-2.2-1.8c-4.2,0-8.3,0.1-12.5,0c-1.5,0-1.9,0.6-1.8,1.9c-0.1,2.3-0.1,4.7,0.1,7c1.4,11.1,3.1,22.1,4.5,33.1
	c1.4,11.3,0.9,22.4-2.9,33.3c-2,5.6-4.2,11.1-3.1,17.2c0.5,1.9,1,3.7,1.7,5.5c2.4-2.6,4.2-5.3,6.6-7c3.4-2.4,7.4-4,9.6-7.8
	c-0.7,3.1-2.7,5.7-5.6,7.1c-3.3,1.8-6,4.4-7.8,7.7c-0.9,1.7-0.9,2.6,0.5,3.8c3.6,3.3,7.7,6.2,10.7,10c2.8,3.5,6.1,3.7,10.1,3.5
	C331.2,388.8,330.2,384.9,329.2,380.9z M298.1,370.2l0.9,0.4c0.9-1.6,2.1-3.1,2.6-4.8c1.7-5.9,3.1-11.9,4.8-17.8
	c3.8-13.5,2.6-27,0.4-40.6c-1.5-9.4-3.2-18.7-2.2-28.3c-0.1-0.7-0.6-1.4-1.3-1.6c-3.8-0.1-7.7-0.1-11.5,0c-0.8,0.2-1.5,0.7-1.8,1.5
	c-0.6,2.8-1,5.7-1,8.7c0.4,8.3,1,16.6,1.6,24.9c0.4,5,0.7,10-1.6,14.7c-2,3.9-4.1,7.6-6.3,11.3c-2.8,4.6-6.8,8.7-7.5,14.2
	c-0.5,4.2-0.6,8.4-0.2,12.6c0.4,5.1-1,9.4-4.9,12.7s-7.8,6.8-11.9,9.9c-7,5.2-12,11.6-13.7,20.4c-0.6,3.2-0.6,3.2,2.6,4
	c1.4,0.4,2.8,0.7,4.1,1c5,1.1,5.6,0.7,6.7-4.4c0-0.2,0-0.3,0.1-0.5c1.8-8.6,5.9-15.3,14.7-18.3c0.8-0.4,1.4-1.1,1.8-1.9
	c1.5-2.7,2.7-5.5,4.3-8.2c2.2-3.8,4.3-7.5,4.9-11.9c0.2-1.2,0.5-2.3,0.8-3.5c0.5,5.4-1.1,10.2-3.6,14.8c-1.3,2.5-2.1,5.3-3.3,8.4
	c0.7,0,1.3-0.1,2-0.2c7.2-2,12.3-6.8,16.3-12.8c0.5-1,0.6-2.2,0.4-3.3c-0.5-4.5-1.3-9-1.6-13.6c-0.2-4.7,1.2-9.3,3.8-13.2
	C295.1,353.3,295.7,361.8,298.1,370.2L298.1,370.2z M292.6,385.8c-6.8,4.6-6.7,2.6-5.1,10.9c1.3,6.6,3,13.2,2,20
	c-0.2,1.5,0.5,2,1.8,2c2.9,0,5.8,0.1,8.7-0.1c4-0.3,7.9-0.8,11.9-1.1c2.3-0.2,2.7-1.6,1.9-3.2c-0.9-1.9-2.2-3.5-3.6-5
	c-2.7-2.6-5.4-5-6.3-8.8c-0.1-0.4-0.3-0.8-0.6-1.1C299,395.5,294.9,391.4,292.6,385.8L292.6,385.8z M370,416.6l-0.1-0.8
	c-1.5,0.1-3.1,0.1-4.6,0.3c-11.6,1.4-22.9,4.1-33.9,8c-10.8,4.2-22.4,6.2-33.9,5.8c-18.7-0.7-37-3.7-55.4-7c-1.5-0.3-3-0.5-4.4-0.7
	s-2.9-0.4-4.3-0.5c14,5.1,28.6,8.5,43.4,10c14.5,1.5,28.8-0.1,42.9-2.8c10.2-2,20.2-4.8,30.3-7.2C356.6,420.1,363.3,418.4,370,416.6
	z M278.4,418c0.5-0.3,1.8-0.5,2.1-1.2c0.7-1.9,1.7-4.1,1.3-5.8c-0.9-3.3-2.6-6.4-4.1-9.5c-0.9-1.8-2.2-3.3-3-5.1
	c-0.7-1.6-1.4-1.9-2.8-1.1c-0.6,0.3-1.2,0.6-1.7,1c-5.8,4.2-6.7,10.8-7.6,17.2c-0.1,0.7,1.2,2.1,2,2.3
	C268.9,416.7,273.4,417.2,278.4,418z M352.1,413.5v-0.4c-0.6-0.1-1.3-0.1-1.9,0c-4.4,1.1-8.7,2.2-13,3.3c-8.6,2-17.2,4.5-26,6
	c-12.9,2.1-25.9,1.2-38.8-0.8c-9.6-1.4-19.2-3-28.8-4.5c-1.3-0.2-2.6-0.2-3.8-0.2c0.1,0.6,0.2,0.8,0.4,0.8c14.4,4.4,28.9,7.8,44,8.5
	c11.2,0.5,22.4,0.3,33.2-2.5C329,420.6,340.5,416.9,352.1,413.5L352.1,413.5z M311.1,385.6c-1.2,3-2.2,6.1-3,9.2
	c-0.9,4.3,0.7,7.8,4.3,10.4c1.7,1.2,3.4,2.4,5,3.7s3,3,4.6,4.5c0.6,0.5,1.3,0.9,2,1.2c0.3-0.8,0.9-1.6,0.8-2.3
	c-0.4-2.9-0.9-5.7-1.4-8.6C322.1,396.1,318.7,389.8,311.1,385.6L311.1,385.6z M302.9,396.2c1-3.3,1.5-6.5,3-9c2-3.3,2.1-5.8-0.7-8.6
	c-1.2-1.2-1.8-3-2.7-4.8c-2.5,3.2-4.9,6.1-7.1,9.1c-0.3,0.6-0.4,1.3-0.2,1.9C296.3,389.5,299.3,393,302.9,396.2L302.9,396.2z
	 M347.7,407.9c-2.8-6.1-14.7-11.8-18.5-9.8l4.5,13.6L347.7,407.9z M282.6,405.2l1-0.2c-0.4-4.4-0.8-8.9-1.2-13.4
	c-6,1.3-5.9,1.7-4.3,6C279.1,400.3,281,402.7,282.6,405.2L282.6,405.2z"/>
<path class="st1" d="M329.2,380.9c1,4,2,7.9,3.1,12c-4,0.1-7.3,0-10.1-3.5c-3.1-3.8-7.1-6.7-10.7-10c-1.3-1.2-1.4-2.2-0.5-3.8
	c1.8-3.3,4.5-6,7.8-7.7c2.9-1.4,4.9-4,5.6-7.1c-2.3,3.8-6.2,5.5-9.6,7.8c-2.4,1.7-4.2,4.4-6.6,7c-0.7-1.8-1.2-3.7-1.7-5.5
	c-1.1-6.1,1.2-11.7,3.1-17.2c3.8-10.9,4.3-22,2.9-33.3c-1.4-11.1-3-22.1-4.5-33.1c-0.1-2.3-0.2-4.7-0.1-7c0-1.3,0.3-2,1.8-1.9
	c4.2,0.1,8.3,0.1,12.5,0c1.3,0,1.9,0.4,2.2,1.8c2,9.8,3.8,19.7,6.3,29.5c2.9,11.5,4.3,23,2.5,34.9c-1.1,6.4-0.8,13,0.8,19.3
	c1.6,6.3,5.2,11.2,9.9,15.6s9,8.5,13.2,13c2.9,2.9,4.6,6.9,4.5,11.1c0,1-0.7,2.6-1.3,2.7c-1.6,0.3-3.4,1.6-5-0.4
	c-3.5-4.4-7.7-8.4-13.2-9.3c-8.1-1.4-9.3-7.9-11.6-13.7c-0.1-0.2-0.1-0.5-0.2-0.7c-0.1-0.1-0.2-0.2-0.4-0.3L329.2,380.9z"/>
<path class="st1" d="M298.1,370.2c-2.4-8.4-3-16.9,0.5-25.3c-2.7,3.8-4,8.5-3.8,13.2c0.3,4.5,1.1,9,1.6,13.6
	c0.2,1.1,0.1,2.2-0.4,3.3c-4,6-9.1,10.8-16.3,12.8c-0.7,0.1-1.3,0.2-2,0.2c1.2-3.1,1.9-5.9,3.3-8.4c2.5-4.6,4-9.4,3.6-14.8
	c-0.3,1.1-0.6,2.3-0.8,3.5c-0.6,4.4-2.7,8.1-4.9,11.9c-1.5,2.6-2.8,5.5-4.3,8.2c-0.4,0.8-1,1.4-1.8,1.9c-8.8,3-12.9,9.7-14.7,18.3
	c0,0.2,0,0.3-0.1,0.5c-1.1,5-1.7,5.5-6.7,4.4c-1.4-0.3-2.8-0.6-4.1-1c-3.2-0.8-3.2-0.8-2.6-4c1.7-8.7,6.7-15.2,13.7-20.4
	c4.1-3.1,8-6.5,11.9-9.9s5.2-7.6,4.9-12.7c-0.4-4.2-0.3-8.5,0.2-12.6c0.8-5.5,4.7-9.6,7.5-14.2c2.2-3.7,4.4-7.5,6.3-11.3
	c2.3-4.6,2.1-9.6,1.6-14.7c-0.7-8.3-1.3-16.6-1.6-24.9c0-2.9,0.4-5.8,1-8.7c0.3-0.8,1-1.3,1.8-1.5c3.8-0.1,7.7-0.1,11.5,0
	c0.7,0.3,1.2,0.9,1.3,1.6c-1,9.6,0.7,18.9,2.2,28.3c2.2,13.5,3.4,27.1-0.4,40.6c-1.7,5.9-3.1,11.9-4.8,17.8
	c-0.5,1.7-1.7,3.2-2.6,4.8L298.1,370.2z"/>
<path class="st1" d="M292.6,385.8c2.2,5.6,6.4,9.6,10.6,13.6c0.3,0.3,0.5,0.7,0.6,1.1c1,3.8,3.7,6.2,6.3,8.8c1.5,1.5,2.7,3.1,3.6,5
	c0.9,1.6,0.4,3-1.9,3.2c-4,0.3-7.9,0.9-11.9,1.1c-2.9,0.2-5.8,0.1-8.7,0.1c-1.3,0-2-0.5-1.8-2c1.1-6.8-0.7-13.4-2-20
	C285.9,388.5,285.9,390.4,292.6,385.8z"/>
<path class="st1" d="M370,416.6c-6.7,1.7-13.3,3.5-20,5.1c-10.1,2.5-20.1,5.3-30.3,7.2c-14.1,2.7-28.4,4.3-42.9,2.8
	c-14.8-1.5-29.4-4.9-43.4-10c1.4,0.2,2.9,0.4,4.3,0.5s3,0.5,4.4,0.7c18.3,3.3,36.7,6.3,55.4,7c11.6,0.3,23.1-1.6,33.9-5.9
	c11-4,22.3-6.7,33.9-8c1.5-0.2,3.1-0.2,4.6-0.3L370,416.6z"/>
<path class="st1" d="M278.4,418c-5-0.8-9.5-1.4-14-2.2c-0.8-0.2-2.1-1.6-2-2.3c0.9-6.4,1.8-12.9,7.6-17.2c0.5-0.4,1.2-0.6,1.7-1
	c1.4-0.8,2.1-0.5,2.8,1.1c0.8,1.8,2.1,3.4,3,5.1c1.5,3.1,3.3,6.2,4.1,9.5c0.5,1.7-0.6,4-1.3,5.8C280.2,417.5,278.9,417.7,278.4,418z
	"/>
<path class="st1" d="M352.1,413.5c-11.6,3.4-23.1,7.1-34.8,10.1c-10.9,2.9-22.1,3.1-33.2,2.5c-15-0.7-29.6-4.1-44-8.5
	c-0.1,0-0.2-0.2-0.4-0.8c1.3,0.1,2.6,0,3.8,0.2c9.6,1.5,19.2,3.1,28.8,4.5c12.9,1.9,25.9,2.9,38.8,0.8c8.7-1.4,17.3-3.9,26-6
	c4.4-1,8.7-2.2,13-3.3c0.6-0.1,1.3-0.1,1.9,0L352.1,413.5z"/>
<path class="st1" d="M311.1,385.6c7.6,4.2,11,10.5,12.4,18.1c0.5,2.9,1,5.7,1.4,8.6c0.1,0.7-0.5,1.5-0.8,2.3c-0.7-0.3-1.4-0.8-2-1.2
	c-1.6-1.5-3-3.1-4.6-4.5s-3.3-2.5-5-3.7c-3.6-2.6-5.3-6.1-4.3-10.4C308.9,391.7,309.9,388.6,311.1,385.6z"/>
<path class="st1" d="M302.9,396.2c-3.6-3.2-6.5-6.7-7.7-11.4c-0.2-0.6-0.1-1.3,0.2-1.9c2.2-3,4.6-5.9,7.1-9.1c1,1.8,1.5,3.6,2.7,4.8
	c2.7,2.8,2.7,5.3,0.7,8.6C304.4,389.7,303.9,392.9,302.9,396.2z"/>
<path class="st1" d="M347.7,407.9l-14,3.8l-4.5-13.6C333,396.1,344.9,401.8,347.7,407.9z"/>
<path class="st1" d="M282.6,405.2c-1.5-2.5-3.5-4.9-4.5-7.6c-1.6-4.3-1.7-4.6,4.3-6c0.4,4.5,0.8,9,1.2,13.4L282.6,405.2z"/>
</svg>
